<?xml version="1.0" standalone="no"?>
<!DOCTYPE svg PUBLIC "-//W3C//DTD SVG 20010904//EN"
 "http://www.w3.org/TR/2001/REC-SVG-20010904/DTD/svg10.dtd">
<svg version="1.0" xmlns="http://www.w3.org/2000/svg"
 width="239.000000pt" height="39.000000pt" viewBox="0 0 239.000000 39.000000"
 preserveAspectRatio="xMidYMid meet">
<metadata>
Created by potrace 1.10, written by Peter Selinger 2001-2011
</metadata>
<g transform="translate(0.000000,39.000000) scale(0.100000,-0.100000)"
fill="#073763" stroke="none">
<path d="M2043 338 c-34 -54 -53 -115 -53 -170 0 -56 1 -59 23 -56 12 2 21 9
20 16 -2 9 25 12 107 12 82 0 109 -3 107 -12 -1 -7 8 -14 20 -16 20 -3 22 2
25 50 2 29 -3 65 -9 80 -11 22 -10 27 3 32 8 3 12 11 9 17 -5 8 -10 8 -18 0
-8 -8 -16 -2 -27 21 l-15 33 -92 3 c-66 2 -94 -1 -100 -10z m57 -25 c0 -15 2
-14 15 3 13 17 14 17 15 2 0 -22 20 -24 20 -3 0 8 5 15 10 15 6 0 10 -8 10
-17 0 -15 2 -14 15 3 13 17 14 17 15 2 0 -20 20 -25 21 -5 0 6 5 1 12 -11 9
-20 8 -26 -6 -33 -9 -6 -17 -16 -17 -23 0 -16 -30 -26 -77 -26 -41 0 -63 9
-63 26 0 7 -8 17 -17 23 -14 7 -15 13 -6 33 7 12 12 17 12 11 1 -18 21 -16 21
2 0 8 5 15 10 15 6 0 10 -8 10 -17z m-43 -78 c3 -9 3 -19 -1 -22 -9 -10 -58
16 -51 27 10 16 45 12 52 -5z m213 1 c0 -15 -37 -32 -47 -22 -3 3 -3 12 0 21
8 19 47 20 47 1z m-37 -35 c4 -1 7 -7 7 -15 0 -10 -22 -13 -100 -14 -76 0
-100 3 -100 13 0 7 5 15 11 17 9 3 159 2 182 -1z"/>
<path d="M480 257 c0 -14 -6 -28 -12 -30 -10 -4 -10 -7 -1 -14 6 -5 13 -29 15
-53 3 -43 5 -45 36 -48 18 -2 32 1 32 7 0 6 -7 11 -15 11 -19 0 -21 76 -2 83
9 4 9 8 1 14 -7 4 -13 17 -15 28 -6 31 -39 32 -39 2z"/>
<path d="M1560 257 c0 -14 -6 -28 -12 -30 -10 -4 -10 -7 -1 -14 6 -5 13 -29
15 -53 3 -43 5 -45 36 -48 18 -2 32 1 32 7 0 6 -7 11 -15 11 -19 0 -21 76 -2
83 9 4 9 8 1 14 -7 4 -13 17 -15 28 -6 31 -39 32 -39 2z"/>
<path d="M1644 267 c-3 -8 -4 -45 -2 -83 3 -61 5 -69 23 -69 17 0 19 6 17 33
-3 30 -1 32 28 32 46 0 70 16 70 48 0 16 -5 33 -12 40 -17 17 -117 16 -124 -1z
m91 -37 c0 -20 -6 -26 -27 -28 -25 -3 -28 0 -28 28 0 28 3 31 28 28 21 -2 27
-8 27 -28z"/>
<path d="M1810 196 c0 -78 2 -86 19 -86 23 0 31 17 24 53 -5 25 -3 27 30 27
34 0 36 -2 39 -37 2 -27 8 -39 21 -41 15 -3 17 6 17 82 0 79 -2 86 -20 86 -16
0 -20 -7 -20 -30 0 -28 -3 -30 -35 -30 -33 0 -36 2 -33 28 2 21 -2 28 -19 30
-22 3 -23 1 -23 -82z"/>
<path d="M109 224 c0 -2 -1 -28 -1 -56 -1 -45 2 -53 18 -53 15 0 20 9 24 44 7
62 28 65 32 4 3 -40 6 -48 23 -48 17 0 19 6 17 35 -1 19 2 41 7 49 15 24 31 2
31 -45 0 -37 3 -44 20 -44 18 0 20 7 20 54 0 44 -4 56 -17 59 -22 6 -173 7
-174 1z"/>
<path d="M320 220 c0 -5 9 -33 20 -61 23 -58 21 -79 -10 -79 -12 0 -18 -4 -15
-10 9 -14 62 -12 72 3 16 25 60 146 55 152 -14 14 -32 2 -42 -30 -13 -40 -25
-38 -35 5 -5 21 -13 30 -26 30 -10 0 -19 -4 -19 -10z"/>
<path d="M560 170 c0 -53 2 -60 19 -60 17 0 20 8 23 48 3 43 5 47 31 50 43 5
21 22 -29 22 l-44 0 0 -60z"/>
<path d="M693 223 c-15 -6 -17 -33 -3 -33 6 0 19 6 30 12 15 9 22 10 31 1 9
-9 1 -14 -30 -23 -81 -21 -63 -70 25 -68 l54 2 0 46 c0 25 -5 51 -12 58 -12
12 -71 15 -95 5z m65 -70 c-4 -20 -39 -25 -45 -6 -4 10 11 18 40 22 5 0 7 -7
5 -16z"/>
<path d="M830 168 c0 -51 2 -58 19 -58 17 0 20 8 23 48 3 39 6 47 23 47 17 0
20 -8 23 -48 3 -39 6 -48 20 -45 12 2 18 15 20 46 4 59 -9 72 -74 70 l-54 -2
0 -58z"/>
<path d="M979 214 c-11 -14 -10 -19 10 -35 13 -11 32 -19 42 -19 10 0 19 -7
19 -15 0 -17 -25 -20 -35 -5 -8 13 -45 13 -45 0 0 -14 35 -30 64 -30 39 0 56
10 56 36 0 19 -8 25 -40 34 -22 6 -40 15 -40 20 0 13 27 13 35 0 8 -13 45 -13
45 0 0 29 -89 40 -111 14z"/>
<path d="M1120 143 c0 -75 2 -84 18 -81 11 2 17 13 17 30 -1 24 2 26 26 21 44
-9 69 12 69 57 0 47 -16 59 -83 58 l-47 -1 0 -84z m90 47 c14 -26 -4 -63 -28
-58 -18 3 -28 39 -18 64 8 20 34 17 46 -6z"/>
<path d="M1290 210 c-41 -41 -9 -100 53 -100 40 0 67 25 67 62 0 54 -79 79
-120 38z m78 -38 c2 -22 -2 -34 -12 -38 -34 -13 -61 37 -34 64 21 21 43 9 46
-26z"/>
<path d="M1430 170 c0 -53 2 -60 19 -60 17 0 20 8 23 48 3 43 5 47 31 50 43 5
21 22 -29 22 l-44 0 0 -60z"/>
</g>
</svg>
