<?xml version="1.0" standalone="no"?>
<!DOCTYPE svg PUBLIC "-//W3C//DTD SVG 20010904//EN"
 "http://www.w3.org/TR/2001/REC-SVG-20010904/DTD/svg10.dtd">
<svg version="1.0" xmlns="http://www.w3.org/2000/svg"
 width="24.000000pt" height="24.000000pt" viewBox="0 0 24.000000 24.000000"
 preserveAspectRatio="xMidYMid meet">
<metadata>
Created by potrace 1.10, written by Peter Selinger 2001-2011
</metadata>
<g transform="translate(0.000000,24.000000) scale(0.100000,-0.100000)"
fill="#073763" stroke="none">
<path d="M30 215 c-16 -20 -10 -189 8 -207 11 -11 16 -10 26 5 18 24 94 24
112 0 10 -15 15 -16 26 -5 18 18 24 187 8 207 -18 21 -162 21 -180 0z m168
-57 c-2 -18 -6 -32 -10 -30 -5 1 -39 2 -78 2 l-70 0 0 30 0 30 81 0 80 0 -3
-32z m-120 -91 c2 -10 -3 -17 -12 -17 -18 0 -29 16 -21 31 9 14 29 6 33 -14z
m52 8 c0 -19 -16 -19 -24 0 -3 9 0 15 9 15 8 0 15 -7 15 -15z m65 -6 c0 -7 -8
-15 -17 -17 -18 -3 -25 18 -11 32 10 10 28 1 28 -15z"/>
</g>
</svg>
