<?xml version="1.0" standalone="no"?>
<!DOCTYPE svg PUBLIC "-//W3C//DTD SVG 20010904//EN"
 "http://www.w3.org/TR/2001/REC-SVG-20010904/DTD/svg10.dtd">
<svg version="1.0" xmlns="http://www.w3.org/2000/svg"
 width="24.000000pt" height="24.000000pt" viewBox="0 0 24.000000 24.000000"
 preserveAspectRatio="xMidYMid meet">
<metadata>
Created by potrace 1.10, written by Peter Selinger 2001-2011
</metadata>
<g transform="translate(0.000000,24.000000) scale(0.100000,-0.100000)"
fill="#999999" stroke="none">
<path d="M165 210 c-4 -7 -3 -16 3 -22 14 -14 45 -2 40 15 -6 16 -34 21 -43 7z"/>
<path d="M97 174 c-44 -29 -45 -38 -12 -60 l26 -17 -21 -22 c-35 -38 -3 -43
34 -6 30 31 30 33 12 46 -11 8 -16 18 -11 22 4 5 10 2 12 -4 5 -15 63 -18 63
-3 0 6 -9 10 -20 10 -13 0 -20 7 -20 19 0 36 -23 42 -63 15z"/>
<path d="M9 89 c-18 -34 3 -69 41 -69 17 0 29 4 25 10 -3 5 -12 7 -19 4 -18
-7 -47 23 -40 41 8 19 35 28 48 15 16 -16 30 -12 16 5 -18 22 -57 19 -71 -6z"/>
<path d="M156 88 c-20 -28 -20 -33 0 -52 24 -24 63 -20 75 8 25 54 -42 92 -75
44z m64 -7 c7 -15 6 -24 -6 -36 -19 -18 -33 -16 -48 7 -7 12 -6 21 3 32 18 22
38 20 51 -3z"/>
</g>
</svg>
