<?xml version="1.0" standalone="no"?>
<!DOCTYPE svg PUBLIC "-//W3C//DTD SVG 20010904//EN"
 "http://www.w3.org/TR/2001/REC-SVG-20010904/DTD/svg10.dtd">
<svg version="1.0" xmlns="http://www.w3.org/2000/svg"
 width="32.000000pt" height="32.000000pt" viewBox="0 0 32.000000 32.000000"
 preserveAspectRatio="xMidYMid meet">
<metadata>
Created by potrace 1.10, written by Peter Selinger 2001-2011
</metadata>
<g transform="translate(0.000000,32.000000) scale(0.100000,-0.100000)"
fill="#999999" stroke="none">
<path d="M66 248 c-9 -12 -16 -27 -16 -34 0 -6 -10 -10 -21 -10 -12 1 -24 -5
-26 -11 -3 -8 3 -13 14 -13 16 0 18 -7 15 -66 -4 -64 -3 -66 20 -62 15 2 24
11 26 26 3 21 8 22 82 22 74 0 79 -1 82 -22 2 -15 11 -24 26 -26 23 -4 24 -2
20 62 -3 59 -1 66 15 66 11 0 17 6 15 13 -3 6 -13 12 -24 12 -11 0 -25 12 -34
30 -15 29 -17 30 -97 33 -75 3 -83 1 -97 -20z m174 -34 c6 -14 10 -28 10 -32
0 -4 -40 -7 -90 -7 -50 0 -90 3 -90 7 0 4 4 18 10 32 9 25 14 26 80 26 66 0
71 -1 80 -26z m-137 -69 c-3 -13 -53 -20 -53 -7 0 15 13 23 35 20 11 -2 19 -7
18 -13z m165 -2 c2 -8 -6 -13 -22 -13 -26 0 -40 12 -29 24 11 11 46 2 51 -11z
m-90 -10 c-10 -2 -26 -2 -35 0 -10 3 -2 5 17 5 19 0 27 -2 18 -5z"/>
</g>
</svg>
