<?xml version="1.0" standalone="no"?>
<!DOCTYPE svg PUBLIC "-//W3C//DTD SVG 20010904//EN"
 "http://www.w3.org/TR/2001/REC-SVG-20010904/DTD/svg10.dtd">
<svg version="1.0" xmlns="http://www.w3.org/2000/svg"
 width="24.000000pt" height="24.000000pt" viewBox="0 0 24.000000 24.000000"
 preserveAspectRatio="xMidYMid meet">
<metadata>
Created by potrace 1.10, written by Peter Selinger 2001-2011
</metadata>
<g transform="translate(0.000000,24.000000) scale(0.100000,-0.100000)"
fill="#073763" stroke="none">
<path d="M90 197 c-14 -12 -40 -34 -59 -49 -18 -15 -29 -32 -26 -38 4 -6 29 9
61 36 61 52 50 54 130 -19 22 -20 34 -25 39 -17 4 6 -1 17 -11 24 -11 8 -18
27 -18 47 -1 24 -6 35 -18 37 -13 2 -18 -3 -18 -19 l0 -22 -23 21 c-28 27 -26
27 -57 -1z"/>
<path d="M71 131 c-36 -33 -42 -44 -39 -73 3 -29 7 -33 36 -36 30 -3 32 -1 32
27 0 24 4 31 20 31 16 0 20 -7 20 -31 0 -28 2 -30 33 -27 28 3 32 7 35 36 3
29 -3 40 -39 73 -23 21 -45 39 -49 39 -4 0 -26 -18 -49 -39z"/>
</g>
</svg>
