<?xml version="1.0" standalone="no"?>
<!DOCTYPE svg PUBLIC "-//W3C//DTD SVG 20010904//EN"
 "http://www.w3.org/TR/2001/REC-SVG-20010904/DTD/svg10.dtd">
<svg version="1.0" xmlns="http://www.w3.org/2000/svg"
 width="24.000000pt" height="24.000000pt" viewBox="0 0 24.000000 24.000000"
 preserveAspectRatio="xMidYMid meet">
<metadata>
Created by potrace 1.10, written by Peter Selinger 2001-2011
</metadata>
<g transform="translate(0.000000,24.000000) scale(0.100000,-0.100000)"
fill="#999999" stroke="none">
<path d="M12 168 c3 -55 6 -63 23 -64 15 -1 16 0 3 3 -15 4 -18 14 -16 61 l2
57 3 -52 c3 -38 8 -53 19 -53 7 0 14 6 14 14 0 11 13 13 63 9 78 -7 91 -15 17
-11 -54 3 -55 2 -72 -32 -25 -47 -23 -70 5 -71 21 0 21 -1 2 -9 -19 -8 -19 -9
3 -9 12 -1 22 4 22 9 0 6 18 10 40 10 22 0 40 -4 40 -10 0 -16 37 -11 44 6 10
25 7 45 -11 86 -16 36 -19 38 -63 38 -46 0 -46 0 -42 30 2 17 0 30 -5 30 -6 0
-8 -11 -5 -25 4 -21 1 -25 -21 -25 -16 0 -27 -7 -30 -17 -3 -10 -5 1 -6 25 -1
29 3 42 13 42 7 0 27 3 44 6 28 6 31 4 35 -22 l4 -29 -1 30 c-1 30 -2 30 -64
33 l-63 3 3 -63z m192 -63 c4 -12 -6 -15 -59 -15 -60 0 -75 6 -58 23 3 4 30 7
59 7 37 0 54 -4 58 -15z m12 -45 c0 -18 -7 -20 -78 -20 -70 0 -78 2 -78 19 0
16 9 19 78 20 72 2 78 0 78 -19z"/>
<path d="M110 60 c0 -5 16 -10 35 -10 19 0 35 5 35 10 0 6 -16 10 -35 10 -19
0 -35 -4 -35 -10z"/>
<path d="M57 194 c-13 -13 -7 -24 14 -24 11 0 19 5 17 12 -5 14 -22 21 -31 12z"/>
</g>
</svg>
