<?xml version="1.0" standalone="no"?>
<!DOCTYPE svg PUBLIC "-//W3C//DTD SVG 20010904//EN"
 "http://www.w3.org/TR/2001/REC-SVG-20010904/DTD/svg10.dtd">
<svg version="1.0" xmlns="http://www.w3.org/2000/svg"
 width="24.000000pt" height="24.000000pt" viewBox="0 0 24.000000 24.000000"
 preserveAspectRatio="xMidYMid meet">
<metadata>
Created by potrace 1.10, written by Peter Selinger 2001-2011
</metadata>
<g transform="translate(0.000000,24.000000) scale(0.100000,-0.100000)"
fill="#073763" stroke="none">
<path d="M7 234 c-4 -4 -7 -13 -7 -21 0 -10 26 -13 115 -13 l115 0 0 -80 c0
-47 -4 -80 -10 -80 -5 0 -11 15 -11 33 -1 17 -3 25 -6 16 -2 -10 -12 -19 -21
-21 -11 -3 -18 -16 -20 -37 -2 -32 -2 -32 35 -29 l38 3 0 115 0 115 -111 3
c-60 1 -113 -1 -117 -4z m218 -14 c4 -6 -33 -10 -105 -10 -72 0 -109 4 -105
10 3 6 50 10 105 10 55 0 102 -4 105 -10z m-25 -170 c0 -5 -4 -10 -10 -10 -5
0 -10 5 -10 10 0 6 5 10 10 10 6 0 10 -4 10 -10z m30 -30 c0 -5 -13 -10 -30
-10 -16 0 -30 5 -30 10 0 6 14 10 30 10 17 0 30 -4 30 -10z"/>
<path d="M4 155 c-10 -25 1 -134 15 -148 10 -9 15 -8 25 6 16 21 42 22 50 2 9
-24 36 -17 47 12 5 15 9 52 7 82 l-3 56 -68 3 c-54 2 -68 0 -73 -13z m126 -2
c0 -5 -27 -8 -60 -8 -33 0 -60 3 -60 8 0 4 27 7 60 7 33 0 60 -3 60 -7z m0
-38 c0 -12 -13 -15 -60 -15 -47 0 -60 3 -60 15 0 12 13 15 60 15 47 0 60 -3
60 -15z m0 -50 c0 -24 -3 -25 -60 -25 -53 0 -60 2 -60 20 0 16 8 20 58 23 31
2 58 4 60 5 1 1 2 -9 2 -23z m-90 -45 c0 -5 -4 -10 -10 -10 -5 0 -10 5 -10 10
0 6 5 10 10 10 6 0 10 -4 10 -10z"/>
<path d="M68 63 c7 -3 16 -2 19 1 4 3 -2 6 -13 5 -11 0 -14 -3 -6 -6z"/>
</g>
</svg>
